<svg height="64" viewBox="0 0 128 128" width="64" xmlns="http://www.w3.org/2000/svg" xmlns:xlink="http://www.w3.org/1999/xlink"><linearGradient id="a" gradientUnits="userSpaceOnUse" x1="0" x2="128" y1="128" y2="0"><stop offset="0" stop-color="#333"/><stop offset="1" stop-color="#5d5d5d"/></linearGradient><path d="m58.1875 4.90625c-28.229611 0-51.25 23.051638-51.25 51.28125 0 28.229611 23.020389 51.25 51.25 51.25 11.564992 0 22.249203-3.86965 30.84375-10.375l19.5625 23.375a7.0007 7.0007 0 1 0 10.71875-9l-20.34375-24.28125c6.56856-8.617938 10.46875-19.341834 10.46875-30.96875 0-28.229612-23.020389-51.28125-51.25-51.28125zm0 13.96875c20.663449 0 37.25 16.64905 37.25 37.3125 0 20.663449-16.586551 37.25-37.25 37.25s-37.25-16.586551-37.25-37.25c0-20.66345 16.586551-37.3125 37.25-37.3125zm-24.34375 12.96875v5.5 15.0625h11v-9.5625h7.28125v-11h-12.78125zm30.15625 0v11h7.5v9.5625h11v-15.0625-5.5h-5.5zm-30.15625 32.40625v10.71875 5.5h5.5 12.78125v-11h-7.28125v-5.21875zm37.65625 0v5.21875h-7.5v11h13 5.5v-5.5-10.71875z" fill="url(#a)"/></svg>